<?xml version="1.0" encoding="UTF-8"?>
<svg version="1.1" xmlns="http://www.w3.org/2000/svg" width="512" height="512">
<path d="M0 0 C19.64310634 16.50723368 34.95998326 37.87100875 38 64 C40.00706443 92.38316441 35.11130766 117.2402984 16.84375 139.64453125 C0.42107852 158.46699451 -21.83614019 172.43272251 -47.21777344 174.22753906 C-75.8329536 175.49950262 -100.20094475 169.80835389 -122.1875 150.625 C-140.72962913 133.23989973 -153.23970686 111.00534464 -154.3828125 85.2890625 C-155.09445376 56.78869783 -148.21659255 32.57486407 -128.3359375 11.37109375 C-94.61920639 -22.8530798 -39.12763276 -29.61944513 0 0 Z " fill="#EE223B" transform="translate(282,222)"/>
<path d="M0 0 C1.25232422 -0.00128906 2.50464844 -0.00257813 3.79492188 -0.00390625 C5.10912109 -0.00003906 6.42332031 0.00382812 7.77734375 0.0078125 C9.09541016 0.00394531 10.41347656 0.00007813 11.77148438 -0.00390625 C13.02251953 -0.00261719 14.27355469 -0.00132812 15.5625 0 C16.71758057 0.00112793 17.87266113 0.00225586 19.06274414 0.00341797 C21.71484375 0.1328125 21.71484375 0.1328125 22.71484375 1.1328125 C23.26625284 8.29264747 21.53724146 14.51192151 19.65234375 21.3828125 C19.06936016 23.51063882 18.49476066 25.64078492 17.9296875 27.7734375 C17.6730835 28.70704102 17.41647949 29.64064453 17.15209961 30.60253906 C16.53384223 34.18021607 17.06436346 36.08065137 18.95825195 39.14404297 C19.47218506 39.83900879 19.98611816 40.53397461 20.515625 41.25 C21.36350586 42.40822266 21.36350586 42.40822266 22.22851562 43.58984375 C23.11893555 44.78673828 23.11893555 44.78673828 24.02734375 46.0078125 C35.15329726 61.11348139 35.15329726 61.11348139 35.71484375 68.1328125 C36.61400796 66.43707328 37.48330263 64.72547518 38.33984375 63.0078125 C38.82710938 62.05648437 39.314375 61.10515625 39.81640625 60.125 C41.65065888 54.01614124 37.42837449 48.49624357 34.58984375 43.1953125 C34.21730469 42.51791016 33.84476562 41.84050781 33.4609375 41.14257812 C33.10902344 40.47033203 32.75710938 39.79808594 32.39453125 39.10546875 C32.07210449 38.51000244 31.74967773 37.91453613 31.41748047 37.30102539 C29.55796644 31.56289331 30.88197685 26.88913458 33.3046875 21.578125 C33.84158203 20.38703125 34.37847656 19.1959375 34.93164062 17.96875 C35.50512777 16.73173348 36.07869641 15.49475474 36.65234375 14.2578125 C37.22315357 12.99791548 37.792826 11.7375025 38.36132812 10.4765625 C42.52401115 1.3236451 42.52401115 1.3236451 43.71484375 0.1328125 C45.67664682 0.0125042 47.64279605 -0.03742334 49.6081543 -0.06005859 C50.87004074 -0.07612152 52.13192719 -0.09218445 53.43205261 -0.10873413 C54.82188241 -0.12022317 56.21171972 -0.13083144 57.6015625 -0.140625 C58.29924051 -0.14594868 58.99691853 -0.15127235 59.7157383 -0.15675735 C63.41196215 -0.1835151 67.10815201 -0.20287726 70.80444336 -0.21728516 C74.61675398 -0.23389609 78.42819383 -0.27863449 82.2401762 -0.3296566 C85.17508388 -0.36338374 88.10978688 -0.37486871 91.04487038 -0.38051224 C92.44947743 -0.38721501 93.85407147 -0.40241208 95.25848961 -0.42640305 C107.63379988 -0.62565752 107.63379988 -0.62565752 111.56176758 2.54052734 C114.20169185 5.71897342 114.83986156 7.13807301 114.84423828 11.15185547 C114.84739044 11.97966522 114.8505426 12.80747498 114.85379028 13.66036987 C114.85075394 15.00411179 114.85075394 15.00411179 114.84765625 16.375 C114.84861298 17.2949173 114.8495697 18.21483459 114.85055542 19.16262817 C114.85123671 21.1111864 114.84938596 23.0597469 114.84521484 25.00830078 C114.83987805 27.98865888 114.84515526 30.96886544 114.8515625 33.94921875 C114.85090147 35.84114617 114.84961979 37.73307349 114.84765625 39.625 C114.84968048 40.51677948 114.85170471 41.40855896 114.85379028 42.32736206 C114.84906204 43.57853317 114.84906204 43.57853317 114.84423828 44.85498047 C114.84344269 45.5861911 114.84264709 46.31740173 114.84182739 47.07077026 C114.71484375 49.1328125 114.71484375 49.1328125 114.14425659 51.275177 C113.48879735 53.21169314 113.48879735 53.21169314 114.71484375 55.1328125 C114.80874887 56.46989414 114.84277671 57.81148114 114.84423828 59.15185547 C114.84739044 59.97966522 114.8505426 60.80747498 114.85379028 61.66036987 C114.85075394 63.00411179 114.85075394 63.00411179 114.84765625 64.375 C114.84861298 65.2949173 114.8495697 66.21483459 114.85055542 67.16262817 C114.85123671 69.1111864 114.84938596 71.0597469 114.84521484 73.00830078 C114.83987805 75.98865888 114.84515526 78.96886544 114.8515625 81.94921875 C114.85090147 83.84114617 114.84961979 85.73307349 114.84765625 87.625 C114.84968048 88.51677948 114.85170471 89.40855896 114.85379028 90.32736206 C114.84906204 91.57853317 114.84906204 91.57853317 114.84423828 92.85498047 C114.84344269 93.5861911 114.84264709 94.31740173 114.84182739 95.07077026 C114.71484375 97.1328125 114.71484375 97.1328125 114.14425659 99.275177 C113.48879735 101.21169314 113.48879735 101.21169314 114.71484375 103.1328125 C115.00117155 109.05218675 115.02868994 114.97279307 115.06494141 120.8984375 C115.08148421 122.88097893 115.1087521 124.86346112 115.14697266 126.84570312 C115.20185739 129.70734531 115.22363422 132.5675892 115.23828125 135.4296875 C115.26095062 136.31114441 115.28362 137.19260132 115.30697632 138.10076904 C115.29222468 142.41731761 115.07793882 145.2504232 112.30712891 148.67675781 C108.98930302 151.82022441 107.60862298 152.25706353 103.18682861 152.28671265 C102.23353668 152.29531311 101.28024475 152.30391357 100.29806519 152.31277466 C99.24869781 152.31703461 98.19933044 152.32129456 97.11816406 152.32568359 C95.46432205 152.33794983 95.46432205 152.33794983 93.77706909 152.35046387 C90.1157079 152.37534687 86.45438554 152.39184131 82.79296875 152.40625 C81.5445797 152.41157368 80.29619064 152.41689735 79.00997162 152.42238235 C73.76338665 152.44361816 68.51680754 152.46274771 63.27019119 152.47400475 C55.75501879 152.49023575 48.2403641 152.5233905 40.72538686 152.58040559 C34.80193297 152.62381067 28.87859433 152.63975349 22.95497894 152.64613724 C20.43675807 152.65286185 17.91854508 152.66811502 15.40042877 152.69202805 C11.8762515 152.72358554 8.35338257 152.72372968 4.82910156 152.71630859 C3.78783112 152.73271393 2.74656067 152.74911926 1.67373657 152.76602173 C-2.93003236 152.72631873 -6.24184963 152.68413275 -9.91729736 149.72134399 C-12.79981812 146.57018672 -13.41005232 145.23920387 -13.41455078 141.11376953 C-13.41770294 140.28595978 -13.4208551 139.45815002 -13.42410278 138.60525513 C-13.42207855 137.70942719 -13.42005432 136.81359924 -13.41796875 135.890625 C-13.41892548 134.9707077 -13.4198822 134.05079041 -13.42086792 133.10299683 C-13.42154921 131.1544386 -13.41969846 129.2058781 -13.41552734 127.25732422 C-13.41019055 124.27696612 -13.41546776 121.29675956 -13.421875 118.31640625 C-13.42121397 116.42447883 -13.41993229 114.53255151 -13.41796875 112.640625 C-13.41999298 111.74884552 -13.42201721 110.85706604 -13.42410278 109.93826294 C-13.42095062 109.10414886 -13.41779846 108.27003479 -13.41455078 107.41064453 C-13.41375519 106.6794339 -13.41295959 105.94822327 -13.41213989 105.19485474 C-13.28515625 103.1328125 -13.28515625 103.1328125 -12.71456909 100.990448 C-12.05910985 99.05393186 -12.05910985 99.05393186 -13.28515625 97.1328125 C-13.37906137 95.79573086 -13.41308921 94.45414386 -13.41455078 93.11376953 C-13.41770294 92.28595978 -13.4208551 91.45815002 -13.42410278 90.60525513 C-13.42207855 89.70942719 -13.42005432 88.81359924 -13.41796875 87.890625 C-13.41892548 86.9707077 -13.4198822 86.05079041 -13.42086792 85.10299683 C-13.42154921 83.1544386 -13.41969846 81.2058781 -13.41552734 79.25732422 C-13.41019055 76.27696612 -13.41546776 73.29675956 -13.421875 70.31640625 C-13.42121397 68.42447883 -13.41993229 66.53255151 -13.41796875 64.640625 C-13.41999298 63.74884552 -13.42201721 62.85706604 -13.42410278 61.93826294 C-13.42095062 61.10414886 -13.41779846 60.27003479 -13.41455078 59.41064453 C-13.41375519 58.6794339 -13.41295959 57.94822327 -13.41213989 57.19485474 C-13.28515625 55.1328125 -13.28515625 55.1328125 -12.71456909 52.990448 C-12.05910985 51.05393186 -12.05910985 51.05393186 -13.28515625 49.1328125 C-13.57148405 43.21343825 -13.59900244 37.29283193 -13.63525391 31.3671875 C-13.65179671 29.38464607 -13.6790646 27.40216388 -13.71728516 25.41992188 C-13.77216989 22.55827969 -13.79394672 19.6980358 -13.80859375 16.8359375 C-13.83126312 15.95448059 -13.8539325 15.07302368 -13.87728882 14.16485596 C-13.86253718 9.84830739 -13.64825132 7.0152018 -10.87744141 3.58886719 C-7.04593277 -0.04128697 -5.19199456 0.00506501 0 0 Z " fill="#263237" transform="translate(365.28515625,327.8671875)"/>
<path d="M0 0 C1.25207727 -0.00644889 2.50415454 -0.01289778 3.79417354 -0.0195421 C5.18098034 -0.01659991 6.56778673 -0.01346448 7.9545927 -0.01015663 C9.42988734 -0.01389323 10.90517999 -0.01849479 12.3804695 -0.02388728 C16.43551396 -0.03613156 20.490476 -0.03585513 24.54553473 -0.03349853 C28.91852348 -0.03309072 33.29148568 -0.04412604 37.66446209 -0.05361366 C46.23239173 -0.07023247 54.80029384 -0.07572361 63.36823825 -0.07683842 C70.33220454 -0.07778848 77.29616174 -0.08189666 84.26012516 -0.08823967 C104.00089889 -0.10585449 123.74165087 -0.11507816 143.48243252 -0.11357872 C144.54684813 -0.11349881 145.61126375 -0.1134189 146.70793438 -0.11333656 C147.77364848 -0.1132548 148.83936257 -0.11317304 149.93737104 -0.1130888 C167.2102448 -0.11227584 184.48303137 -0.13141554 201.75587992 -0.1596133 C219.48823765 -0.18833295 237.22055285 -0.2021541 254.95293444 -0.20042574 C264.90963846 -0.19976152 274.86625107 -0.20526782 284.82293415 -0.22678185 C293.30013966 -0.24498156 301.77721233 -0.24935094 310.2544289 -0.235763 C314.57949184 -0.22922722 318.90429986 -0.22913804 323.22933865 -0.2464695 C327.19023587 -0.26217848 331.15067558 -0.2593591 335.1115615 -0.24190123 C336.54290629 -0.23882652 337.97428505 -0.24248156 339.4055898 -0.25362138 C348.47407119 -0.31951546 355.0076639 0.04361444 362.05827618 6.22211266 C362.5971043 6.87308922 363.13593243 7.52406578 363.69108868 8.19476891 C364.24538555 8.84316734 364.79968243 9.49156578 365.37077618 10.15961266 C368.74428052 15.05575275 369.10294401 19.55219125 369.06332684 25.36865807 C369.06574125 26.18076799 369.06815567 26.99287792 369.07064325 27.82959723 C369.07627456 30.54808286 369.06762152 33.26633293 369.0590086 35.98480797 C369.06008159 37.93463772 369.06202052 39.88446715 369.06476116 41.83429527 C369.06960864 47.12731745 369.06195593 52.42025534 369.05180812 57.71326733 C369.04303026 63.24614238 369.04478498 68.77901477 369.04516888 74.31189537 C369.04423239 83.59936498 369.03554882 92.88680192 369.02189922 102.17426109 C369.00615539 112.92673064 369.00090176 123.67916444 369.00163478 134.43164468 C369.00224405 144.76278383 368.997149 155.09391128 368.98884296 165.42504692 C368.98530375 169.82855635 368.98347881 174.23206165 368.98294926 178.63557243 C368.98194835 183.81310915 368.97587251 188.99061558 368.96578312 194.16814232 C368.96285054 196.07376737 368.96163427 197.9793959 368.96221066 199.88502312 C368.96269773 202.47465288 368.95708168 205.06419649 368.94980145 207.65381432 C368.95135005 208.41789864 368.95289865 209.18198296 368.95449418 209.96922135 C368.93026766 215.14308992 368.93026766 215.14308992 367.81608868 216.25726891 C364.81608868 216.38226891 364.81608868 216.38226891 361.81608868 216.25726891 C361.48608868 215.92726891 361.15608868 215.59726891 360.81608868 215.25726891 C360.81608868 168.06726891 360.81608868 120.87726891 360.81608868 72.25726891 C236.73608868 72.25726891 112.65608868 72.25726891 -15.18391132 72.25726891 C-15.08078632 110.35164391 -14.97766132 148.44601891 -14.87141132 187.69476891 C-14.8465163 199.72486412 -14.82162128 211.75495934 -14.79597187 224.14960289 C-14.75940923 234.9297081 -14.75940923 234.9297081 -14.71889973 245.70979881 C-14.70095706 250.5127466 -14.69135564 255.31563349 -14.68679523 260.11861229 C-14.6807033 266.24695866 -14.66036415 272.37510297 -14.62974989 278.50337422 C-14.62093858 280.75129382 -14.61711387 282.99923987 -14.61887205 285.24717605 C-14.62052952 288.28747399 -14.60383144 291.32714871 -14.58263874 294.36736107 C-14.58991096 295.68170679 -14.58991096 295.68170679 -14.59733009 297.02260494 C-14.51972241 303.80362583 -13.67155995 310.56231623 -8.93391132 315.69476891 C-1.94209323 319.66739282 4.84280326 319.54751309 12.69862652 319.52901268 C13.89221566 319.53409952 15.08580481 319.53918635 16.31556332 319.54442734 C19.61574185 319.55652823 22.91571273 319.55978478 26.21589899 319.55928409 C29.77958449 319.56092519 33.34322986 319.57405869 36.90689373 319.58582115 C43.0771434 319.60466453 49.24737334 319.61638988 55.41764736 319.62335968 C64.33986233 319.63353549 73.26201758 319.65560156 82.18420149 319.68074559 C96.66207062 319.72131686 111.13994546 319.75379155 125.61784649 319.78046227 C126.48389457 319.78205957 127.34994264 319.78365687 128.2422346 319.78530257 C129.54298603 319.78770092 129.54298603 319.78770092 130.87001526 319.79014772 C143.17886744 319.81286044 155.48771377 319.83749221 167.79655743 319.86444664 C169.09677429 319.86729086 169.09677429 319.86729086 170.42325817 319.87019254 C184.85488174 319.90192489 199.28649376 319.93766762 213.71810257 319.97548813 C222.62353782 319.99856628 231.52896515 320.01750663 240.43441994 320.03115486 C246.52781812 320.04065443 252.62120303 320.05347945 258.71458893 320.06896371 C262.23467669 320.07776191 265.75474797 320.08484486 269.27484608 320.08760452 C273.08173441 320.09060677 276.88857954 320.10117123 280.69545269 320.11250877 C281.82003096 320.11212264 282.94460924 320.11173651 284.10326564 320.11133868 C285.11460791 320.11557972 286.12595018 320.11982077 287.16793919 320.12419033 C288.48766124 320.12655118 288.48766124 320.12655118 289.83404434 320.12895972 C291.81608868 320.25726891 291.81608868 320.25726891 292.81608868 321.25726891 C292.94108868 324.25726891 292.94108868 324.25726891 292.81608868 327.25726891 C291.17846327 328.89489431 289.32093748 328.3870023 287.0614109 328.39148998 C286.02630156 328.39594783 284.99119223 328.40040567 283.92471594 328.4049986 C282.77358314 328.40481424 281.62245035 328.40462988 280.43643475 328.40443993 C279.22432624 328.40811661 278.01221774 328.4117933 276.76337868 328.41558141 C273.38340033 328.42473045 270.00347063 328.4293228 266.62348449 328.43197072 C262.9839072 328.43586548 259.34434409 328.44544459 255.70477581 328.45418358 C246.90567306 328.47397488 238.10656912 328.48401906 229.30744967 328.49291137 C225.16579287 328.49729124 221.02413736 328.50265895 216.88248158 328.50790024 C203.11676677 328.52491768 189.35105277 328.53941118 175.58532906 328.54664898 C172.01047483 328.54855895 168.43562061 328.55047927 164.86076641 328.55243492 C163.97222719 328.55291866 163.08368798 328.5534024 162.16822333 328.5539008 C147.77916369 328.56219844 133.39018726 328.58752853 119.00116395 328.6200156 C104.23408993 328.6530847 89.46705818 328.67109774 74.69994694 328.67429322 C66.40649516 328.67645881 58.1131646 328.68521426 49.81974888 328.71075439 C42.7551218 328.73245966 35.69064535 328.74051283 28.62598871 328.73078761 C25.02192368 328.72624191 21.41816943 328.72814426 17.814147 328.74754906 C13.90417835 328.76841894 9.99463804 328.75819814 6.08462811 328.7450161 C4.38135149 328.76146997 4.38135149 328.76146997 2.64366525 328.77825624 C-5.08841446 328.7152693 -10.45018732 327.52915597 -16.42609882 322.29242516 C-16.96492695 321.64144859 -17.50375507 320.99047203 -18.05891132 320.31976891 C-18.6132082 319.67137047 -19.16750507 319.02297203 -19.73859882 318.35492516 C-22.46905623 314.39207211 -23.43358305 310.85527295 -23.44118023 306.0728693 C-23.45085357 304.52915937 -23.45085357 304.52915937 -23.46072233 302.95426339 C-23.45762512 301.83034576 -23.45452792 300.70642812 -23.45133686 299.54845238 C-23.45586797 298.34926039 -23.46039909 297.15006839 -23.46506751 295.91453725 C-23.47553916 292.58914453 -23.47703712 289.26396806 -23.47467875 285.93857419 C-23.47427058 282.35086605 -23.48530985 278.76319016 -23.49479389 275.17549706 C-23.51140472 268.14762843 -23.51690348 261.11979336 -23.51801865 254.09190675 C-23.5189691 248.37889326 -23.52307925 242.66589084 -23.5294199 236.95288086 C-23.54703268 220.75370794 -23.55625873 204.55456151 -23.55475895 188.35537895 C-23.55467904 187.48213105 -23.55459913 186.60888316 -23.55451679 185.7091732 C-23.55443503 184.83485845 -23.55435327 183.9605437 -23.55426903 183.05973456 C-23.55345616 168.89078528 -23.57259398 154.72194231 -23.60079353 140.55302378 C-23.62952338 126.0027796 -23.64333376 111.45258727 -23.64160597 96.90231401 C-23.6409421 88.73412513 -23.64643328 80.56604769 -23.66796207 72.39788437 C-23.68617524 65.44313854 -23.69052017 58.48855467 -23.67694323 51.53379532 C-23.67041413 47.98641431 -23.67029382 44.439344 -23.68764973 40.89199257 C-23.70628493 37.04353007 -23.69382423 33.19552097 -23.67838764 29.34703636 C-23.68867477 28.22981089 -23.69896189 27.11258542 -23.70956075 25.96150464 C-23.6414894 18.28694319 -22.41592366 12.94548974 -17.21906757 7.01508141 C-16.56809101 6.47625328 -15.91711445 5.93742516 -15.24641132 5.38226891 C-14.59801289 4.82797203 -13.94961445 4.27367516 -13.28156757 3.70258141 C-8.95035516 0.7183196 -5.21360748 0.00679303 0 0 Z M-11.12141132 14.00726891 C-20.20719586 28.32426272 -15.18391132 49.93666437 -15.18391132 64.25726891 C108.89608868 64.25726891 232.97608868 64.25726891 360.81608868 64.25726891 C363.80594692 38.8119411 363.80594692 38.8119411 355.06608868 12.31976891 C347.41625837 7.46506891 339.79644583 7.97116163 330.97529888 7.99657249 C329.55673836 7.99355 328.13817947 7.98966002 326.71962345 7.98497993 C322.83064483 7.97470381 318.94175845 7.97688076 315.05277228 7.98116052 C310.85499151 7.98362845 306.6572329 7.97461275 302.45946026 7.96712303 C294.23904872 7.95437583 286.01866985 7.95258237 277.79825009 7.95492329 C271.11609114 7.9567066 264.4339421 7.95495654 257.75178432 7.95069885 C256.80060699 7.95010366 255.84942966 7.94950847 254.86942878 7.94889525 C252.93708309 7.94768349 251.00473741 7.94646936 249.07239173 7.94525287 C230.95205566 7.93437724 212.83173821 7.93653993 194.71140109 7.94263772 C178.1377289 7.9478068 161.56411549 7.93655169 144.99045493 7.9175395 C127.9688075 7.89816323 110.94718789 7.88990474 93.92552936 7.89366275 C84.37069984 7.89557513 74.81592034 7.89308367 65.26109982 7.87894821 C57.12690681 7.86703614 48.99279463 7.86562758 40.85860051 7.87773838 C36.70963842 7.8836283 32.56082417 7.88472339 28.41187191 7.87273598 C24.61081691 7.86188148 20.81003327 7.86497526 17.00899099 7.87899766 C14.98890097 7.88289646 12.96879892 7.87209395 10.94873726 7.86070079 C-1.16164164 7.87775691 -1.16164164 7.87775691 -11.12141132 14.00726891 Z " fill="#263137" transform="translate(51.18391132354736,103.74273109436035)"/>
<path d="M0 0 C0.90858765 -0.00563965 1.81717529 -0.0112793 2.7532959 -0.01708984 C4.25261658 -0.01101715 4.25261658 -0.01101715 5.78222656 -0.00482178 C6.83269165 -0.00832642 7.88315674 -0.01183105 8.9654541 -0.01544189 C12.45131971 -0.0242725 15.93698375 -0.01840531 19.42285156 -0.01165771 C21.83658894 -0.01300398 24.25032605 -0.01494419 26.6640625 -0.01745605 C31.72821631 -0.02040912 36.79229967 -0.01610377 41.85644531 -0.0067749 C48.36030687 0.00461967 54.86400339 -0.00193881 61.36785889 -0.01391983 C66.35369112 -0.02113347 71.33948398 -0.01885278 76.32531738 -0.01366425 C78.72399922 -0.01232638 81.12268459 -0.01398023 83.5213623 -0.01862335 C86.86883061 -0.02368041 90.21602849 -0.01598978 93.56347656 -0.00482178 C94.56302368 -0.00887024 95.5625708 -0.0129187 96.59240723 -0.01708984 C97.9552887 -0.00863037 97.9552887 -0.00863037 99.34570312 0 C100.533685 0.00113108 100.533685 0.00113108 101.7456665 0.002285 C103.67285156 0.25396729 103.67285156 0.25396729 105.67285156 2.25396729 C105.8725889 4.95532051 105.95266729 7.5519394 105.93847656 10.25396729 C105.94039001 11.04545166 105.94230347 11.83693604 105.9442749 12.65240479 C105.94563674 14.32688718 105.94194038 16.00138014 105.93359375 17.67584229 C105.92289396 20.2437911 105.93348881 22.81104032 105.94628906 25.37896729 C105.94496747 27.00396883 105.94240507 28.62896995 105.93847656 30.25396729 C105.94252502 31.02482666 105.94657349 31.79568604 105.95074463 32.58990479 C105.90277288 38.02404596 105.90277288 38.02404596 103.67285156 40.25396729 C101.7456665 40.50564957 101.7456665 40.50564957 99.34570312 40.50793457 C97.98282166 40.51639404 97.98282166 40.51639404 96.59240723 40.52502441 C95.59286011 40.52097595 94.59331299 40.51692749 93.56347656 40.51275635 C92.51301147 40.51626099 91.46254639 40.51976562 90.38024902 40.52337646 C86.89438342 40.53220707 83.40871937 40.52633988 79.92285156 40.51959229 C77.50911418 40.52093855 75.09537707 40.52287876 72.68164062 40.52539062 C67.61748682 40.52834369 62.55340345 40.52403834 57.48925781 40.51470947 C50.98539625 40.5033149 44.48169974 40.50987339 37.97784424 40.5218544 C32.992012 40.52906804 28.00621914 40.52678735 23.02038574 40.52159882 C20.62170391 40.52026095 18.22301854 40.5219148 15.82434082 40.52655792 C12.47687251 40.53161498 9.12967463 40.52392435 5.78222656 40.51275635 C4.28290588 40.51882904 4.28290588 40.51882904 2.7532959 40.52502441 C1.84470825 40.51938477 0.93612061 40.51374512 0 40.50793457 C-0.79198792 40.50718052 -1.58397583 40.50642647 -2.39996338 40.50564957 C-4.32714844 40.25396729 -4.32714844 40.25396729 -6.32714844 38.25396729 C-6.52688577 35.55261406 -6.60696417 32.95599517 -6.59277344 30.25396729 C-6.59468689 29.46248291 -6.59660034 28.67099854 -6.59857178 27.85552979 C-6.59993361 26.18104739 -6.59623725 24.50655443 -6.58789062 22.83209229 C-6.57719084 20.26414347 -6.58778569 17.69689425 -6.60058594 15.12896729 C-6.59926434 13.50396574 -6.59670195 11.87896462 -6.59277344 10.25396729 C-6.5968219 9.48310791 -6.60087036 8.71224854 -6.6050415 7.91802979 C-6.55437225 2.17831994 -5.94927201 0.0056643 0 0 Z " fill="#FED63F" transform="translate(366.3271484375,431.74603271484375)"/>
<path d="M0 0 C1.31613281 -0.02578125 2.63226563 -0.0515625 3.98828125 -0.078125 C9.01518118 0.36776686 11.29922342 1.8498494 14.79798889 5.37854004 C17.15904507 8.96659953 17.24552541 11.83769015 17.18920898 15.99023438 C17.19461197 16.75346512 17.20001495 17.51669586 17.20558167 18.30305481 C17.21805274 20.81701867 17.20158964 23.32983362 17.18359375 25.84375 C17.18374878 27.59582581 17.18523836 29.34790196 17.18800354 31.09997559 C17.1893868 34.76846514 17.17684183 38.43656337 17.15405273 42.10498047 C17.12566822 46.80266799 17.12840635 51.49970548 17.14114285 56.1974411 C17.14810436 59.8143263 17.14030536 63.43106178 17.12788582 67.04792786 C17.12337591 68.77984543 17.1230305 70.51177911 17.12695122 72.24369812 C17.12986811 74.66605466 17.11333444 77.08752163 17.09155273 79.50976562 C17.09605438 80.22264236 17.10055603 80.9355191 17.10519409 81.66999817 C17.02597141 86.98395902 15.58960464 90.03087792 12.1875 94 C7.95895004 97.52379163 1.60531006 96.78144231 -3.6171875 96.671875 C-8.08977742 96.1612622 -10.14509403 95.03922928 -13.2109375 91.85546875 C-15.78124902 88.10937643 -15.48586854 84.11753168 -15.52124023 79.76855469 C-15.53102402 79.00882858 -15.5408078 78.24910248 -15.55088806 77.46635437 C-15.58080683 74.95154565 -15.6022183 72.43679 -15.62109375 69.921875 C-15.62766558 69.06179085 -15.6342374 68.2017067 -15.64100838 67.31555939 C-15.67358752 62.76231022 -15.69804118 58.20908431 -15.7175293 53.65576172 C-15.73533665 49.89206826 -15.77014893 46.12912484 -15.82006836 42.36572266 C-15.88033106 37.81694474 -15.91101305 33.26886177 -15.92070198 28.71970367 C-15.92924777 26.98935101 -15.94804446 25.25901648 -15.9774456 23.52889252 C-16.2224483 8.29035949 -16.2224483 8.29035949 -12.39868164 3.69628906 C-8.0586005 0.25608552 -5.37266717 0.04097363 0 0 Z " fill="#273238" transform="translate(223.3125,231.75)"/>
<path d="M0 0 C7.65377999 -0.05057791 15.30751713 -0.08568184 22.96142578 -0.10986328 C25.56691091 -0.11994064 28.17238469 -0.1336027 30.77783203 -0.15087891 C34.51597899 -0.17505102 38.25397685 -0.1864656 41.9921875 -0.1953125 C43.16304901 -0.20563507 44.33391052 -0.21595764 45.54025269 -0.22659302 C46.62122223 -0.22674408 47.70219177 -0.22689514 48.81591797 -0.22705078 C49.77078094 -0.231492 50.72564392 -0.23593323 51.70944214 -0.24050903 C54 0 54 0 56 2 C56.19973733 4.70135323 56.27981573 7.29797211 56.265625 10 C56.26753845 10.79148437 56.2694519 11.58296875 56.27142334 12.3984375 C56.27278518 14.0729199 56.26908882 15.74741285 56.26074219 17.421875 C56.2500424 19.98982381 56.26063725 22.55707303 56.2734375 25.125 C56.2721159 26.75000155 56.26955351 28.37500266 56.265625 30 C56.26967346 30.77085937 56.27372192 31.54171875 56.27789307 32.3359375 C56.22992132 37.77007868 56.22992132 37.77007868 54 40 C51.02609253 40.24050903 51.02609253 40.24050903 47.16357422 40.22705078 C46.46102509 40.22734283 45.75847595 40.22763489 45.03463745 40.22793579 C42.70786269 40.22654023 40.38140646 40.21096872 38.0546875 40.1953125 C36.44328995 40.19158317 34.83189013 40.18873582 33.2204895 40.18673706 C28.97566486 40.17909431 24.7309767 40.15944039 20.48620605 40.1373291 C16.1561874 40.11688443 11.82614674 40.1077383 7.49609375 40.09765625 C-1.00266686 40.07619504 -9.50131646 40.04205145 -18 40 C-12.22500805 26.55531967 -6.33806881 13.18955659 0 0 Z " fill="#FED63F" transform="translate(416,384)"/>
<path d="M0 0 C7.26692328 -0.0462955 14.53381488 -0.08185493 21.80085564 -0.10362434 C25.17506994 -0.11407142 28.54918352 -0.12824725 31.92333984 -0.15087891 C35.80048318 -0.17504885 39.67748277 -0.18646511 43.5546875 -0.1953125 C44.76929657 -0.20563507 45.98390564 -0.21595764 47.23532104 -0.22659302 C48.35633209 -0.22674408 49.47734314 -0.22689514 50.63232422 -0.22705078 C51.62271698 -0.231492 52.61310974 -0.23593323 53.6335144 -0.24050903 C56 0 56 0 58 2 C58.19973733 4.70135323 58.27981573 7.29797211 58.265625 10 C58.26753845 10.79148437 58.2694519 11.58296875 58.27142334 12.3984375 C58.27278518 14.0729199 58.26908882 15.74741285 58.26074219 17.421875 C58.2500424 19.98982381 58.26063725 22.55707303 58.2734375 25.125 C58.2721159 26.75000155 58.26955351 28.37500266 58.265625 30 C58.26967346 30.77085937 58.27372192 31.54171875 58.27789307 32.3359375 C58.22992132 37.77007868 58.22992132 37.77007868 56 40 C53.55758667 40.24050903 53.55758667 40.24050903 50.44873047 40.22705078 C48.70715164 40.22682419 48.70715164 40.22682419 46.9303894 40.22659302 C45.67203278 40.21627045 44.41367615 40.20594788 43.1171875 40.1953125 C41.83264679 40.1924826 40.54810608 40.18965271 39.22463989 40.18673706 C35.80837233 40.17909809 32.39227463 40.15944752 28.97607422 40.1373291 C25.49058327 40.11687624 22.0050649 40.10773655 18.51953125 40.09765625 C11.67961769 40.07620175 4.839817 40.04206271 -2 40 C-3.21087517 37.82284041 -4.39275063 35.63662881 -5.5625 33.4375 C-5.90474609 32.82841797 -6.24699219 32.21933594 -6.59960938 31.59179688 C-9.00689129 26.99607686 -9.37030435 24.17179383 -8 19 C-6.77527463 15.62696847 -5.38325208 12.34603021 -3.9375 9.0625 C-3.37192383 7.75055664 -3.37192383 7.75055664 -2.79492188 6.41210938 C-1.87077032 4.27135324 -0.9390249 2.13426353 0 0 Z " fill="#FED63F" transform="translate(414,336)"/>
<path d="M0 0 C0.67801855 -0.00155999 1.3560371 -0.00311998 2.05460167 -0.00472724 C4.34322613 -0.00873927 6.63178511 -0.00554683 8.92041016 -0.00241089 C10.55438272 -0.00376484 12.18835498 -0.00554474 13.82232666 -0.00772095 C18.27261345 -0.01229601 22.72287716 -0.01050542 27.17316437 -0.00734186 C31.81987065 -0.00481864 36.46657489 -0.00715569 41.11328125 -0.00872803 C48.91813514 -0.01054983 56.72297958 -0.00814313 64.52783203 -0.00338745 C73.56474502 0.00205519 82.60163545 0.00029254 91.6385479 -0.00521386 C99.38289522 -0.00974467 107.12723572 -0.01039569 114.87158394 -0.00777519 C119.50332128 -0.00621224 124.135048 -0.00601913 128.76678467 -0.00931168 C133.12020682 -0.01218994 137.47359976 -0.01021553 141.82701874 -0.00441742 C143.42948101 -0.00308958 145.03194572 -0.00348434 146.63440704 -0.00568008 C148.81262023 -0.00839066 150.99073828 -0.00501164 153.16894531 0 C154.39086578 0.00037703 155.61278625 0.00075405 156.87173462 0.0011425 C159.58447266 0.12698364 159.58447266 0.12698364 160.58447266 1.12698364 C160.70947266 4.12698364 160.70947266 4.12698364 160.58447266 7.12698364 C158.72766344 8.98379285 155.64864068 8.25320217 153.16894531 8.25396729 C152.15191749 8.25630727 152.15191749 8.25630727 151.11434364 8.25869453 C148.82571918 8.26270656 146.5371602 8.25951412 144.24853516 8.25637817 C142.61456259 8.25773213 140.98059033 8.25951202 139.34661865 8.26168823 C134.89633187 8.2662633 130.44606816 8.26447271 125.99578094 8.26130915 C121.34907466 8.25878592 116.70237042 8.26112298 112.05566406 8.26269531 C104.25081018 8.26451712 96.44596574 8.26211041 88.64111328 8.25735474 C79.60420029 8.2519121 70.56730986 8.25367474 61.53039742 8.25918114 C53.7860501 8.26371196 46.04170959 8.26436297 38.29736137 8.26174247 C33.66562403 8.26017952 29.03389731 8.25998641 24.40216064 8.26327896 C20.04873849 8.26615722 15.69534556 8.26418282 11.34192657 8.2583847 C9.7394643 8.25705686 8.13699959 8.25745163 6.53453827 8.25964737 C4.35632508 8.26235795 2.17820703 8.25897892 0 8.25396729 C-1.22192047 8.25359026 -2.44384094 8.25321323 -3.70278931 8.25282478 C-6.41552734 8.12698364 -6.41552734 8.12698364 -7.41552734 7.12698364 C-7.54052734 4.12698364 -7.54052734 4.12698364 -7.41552734 1.12698364 C-5.55871813 -0.72982557 -2.47969537 0.00076511 0 0 Z " fill="#263238" transform="translate(131.41552734375,455.8730163574219)"/>
<path d="M0 0 C0.67801855 -0.00155999 1.3560371 -0.00311998 2.05460167 -0.00472724 C4.34322613 -0.00873927 6.63178511 -0.00554683 8.92041016 -0.00241089 C10.55438272 -0.00376484 12.18835498 -0.00554474 13.82232666 -0.00772095 C18.27261345 -0.01229601 22.72287716 -0.01050542 27.17316437 -0.00734186 C31.81987065 -0.00481864 36.46657489 -0.00715569 41.11328125 -0.00872803 C48.91813514 -0.01054983 56.72297958 -0.00814313 64.52783203 -0.00338745 C73.56474502 0.00205519 82.60163545 0.00029254 91.6385479 -0.00521386 C99.38289522 -0.00974467 107.12723572 -0.01039569 114.87158394 -0.00777519 C119.50332128 -0.00621224 124.135048 -0.00601913 128.76678467 -0.00931168 C133.12020682 -0.01218994 137.47359976 -0.01021553 141.82701874 -0.00441742 C143.42948101 -0.00308958 145.03194572 -0.00348434 146.63440704 -0.00568008 C148.81262023 -0.00839066 150.99073828 -0.00501164 153.16894531 0 C154.39086578 0.00037703 155.61278625 0.00075405 156.87173462 0.0011425 C159.58447266 0.12698364 159.58447266 0.12698364 160.58447266 1.12698364 C160.70947266 4.12698364 160.70947266 4.12698364 160.58447266 7.12698364 C158.72766344 8.98379285 155.64864068 8.25320217 153.16894531 8.25396729 C152.15191749 8.25630727 152.15191749 8.25630727 151.11434364 8.25869453 C148.82571918 8.26270656 146.5371602 8.25951412 144.24853516 8.25637817 C142.61456259 8.25773213 140.98059033 8.25951202 139.34661865 8.26168823 C134.89633187 8.2662633 130.44606816 8.26447271 125.99578094 8.26130915 C121.34907466 8.25878592 116.70237042 8.26112298 112.05566406 8.26269531 C104.25081018 8.26451712 96.44596574 8.26211041 88.64111328 8.25735474 C79.60420029 8.2519121 70.56730986 8.25367474 61.53039742 8.25918114 C53.7860501 8.26371196 46.04170959 8.26436297 38.29736137 8.26174247 C33.66562403 8.26017952 29.03389731 8.25998641 24.40216064 8.26327896 C20.04873849 8.26615722 15.69534556 8.26418282 11.34192657 8.2583847 C9.7394643 8.25705686 8.13699959 8.25745163 6.53453827 8.25964737 C4.35632508 8.26235795 2.17820703 8.25897892 0 8.25396729 C-1.22192047 8.25359026 -2.44384094 8.25321323 -3.70278931 8.25282478 C-6.41552734 8.12698364 -6.41552734 8.12698364 -7.41552734 7.12698364 C-7.54052734 4.12698364 -7.54052734 4.12698364 -7.41552734 1.12698364 C-5.55871813 -0.72982557 -2.47969537 0.00076511 0 0 Z " fill="#263238" transform="translate(123.41552734375,71.87301635742188)"/>
<path d="M0 0 C1.0725 0.00515625 2.145 0.0103125 3.25 0.015625 C4.85875 0.00789062 4.85875 0.00789062 6.5 0 C9.25 0.265625 9.25 0.265625 11.25 2.265625 C11.44815184 4.69392561 11.52283267 7.00816519 11.50878906 9.4375 C11.5122937 10.17585083 11.51579834 10.91420166 11.51940918 11.67492676 C11.52823049 14.12192108 11.52237604 16.5686276 11.515625 19.015625 C11.51697154 20.71191463 11.51891197 22.40820388 11.52142334 24.10449219 C11.52437514 27.6621467 11.52007519 31.21970088 11.51074219 34.77734375 C11.49934759 39.34413641 11.50590677 43.910694 11.51788712 48.47747803 C11.52510422 51.98097514 11.52281848 55.48441626 11.51763153 58.98791504 C11.51629462 60.67207873 11.5179442 62.35624746 11.52259064 64.04040527 C11.52765347 66.39165774 11.51994933 68.74252623 11.50878906 71.09375 C11.51283752 71.79407349 11.51688599 72.49439697 11.52105713 73.21594238 C11.47852915 78.03709585 11.47852915 78.03709585 9.25 80.265625 C6.5 80.53125 6.5 80.53125 3.25 80.515625 C1.64125 80.52335937 1.64125 80.52335937 0 80.53125 C-2.75 80.265625 -2.75 80.265625 -4.75 78.265625 C-4.94815184 75.83732439 -5.02283267 73.52308481 -5.00878906 71.09375 C-5.0122937 70.35539917 -5.01579834 69.61704834 -5.01940918 68.85632324 C-5.02823049 66.40932892 -5.02237604 63.9626224 -5.015625 61.515625 C-5.01697154 59.81933537 -5.01891197 58.12304612 -5.02142334 56.42675781 C-5.02437514 52.8691033 -5.02007519 49.31154912 -5.01074219 45.75390625 C-4.99934759 41.18711359 -5.00590677 36.620556 -5.01788712 32.05377197 C-5.02510422 28.55027486 -5.02281848 25.04683374 -5.01763153 21.54333496 C-5.01629462 19.85917127 -5.0179442 18.17500254 -5.02259064 16.49084473 C-5.02765347 14.13959226 -5.01994933 11.78872377 -5.00878906 9.4375 C-5.01283752 8.73717651 -5.01688599 8.03685303 -5.02105713 7.31530762 C-4.96075468 0.4791638 -4.96075468 0.4791638 0 0 Z " fill="#FEFEFE" transform="translate(220.75,239.734375)"/>
<path d="M0 0 C1.08539063 -0.05800781 2.17078125 -0.11601562 3.2890625 -0.17578125 C11.03616424 -0.29890145 11.03616424 -0.29890145 14.35351562 2.22607422 C16.92347278 5.37963211 18.13632178 7.79068308 18.6875 11.8359375 C18.543125 12.88007813 18.39875 13.92421875 18.25 15 C18.03537109 16.77890625 18.03537109 16.77890625 17.81640625 18.59375 C17.72504395 19.23183594 17.63368164 19.86992187 17.53955078 20.52734375 C17.10339945 23.68705056 16.78589241 26.85799818 16.45117188 30.02978516 C16.07389573 33.56430373 15.66230234 37.09441106 15.25 40.625 C10.79172074 40.6828304 6.3335372 40.71853855 1.875 40.75 C0.60398437 40.76675781 -0.66703125 40.78351563 -1.9765625 40.80078125 C-3.18828125 40.80722656 -4.4 40.81367188 -5.6484375 40.8203125 C-6.76911621 40.83078613 -7.88979492 40.84125977 -9.04443359 40.85205078 C-11.75 40.625 -11.75 40.625 -13.75 38.625 C-13.94973733 35.92364677 -14.02981573 33.32702789 -14.015625 30.625 C-14.01753845 29.83351563 -14.0194519 29.04203125 -14.02142334 28.2265625 C-14.02278518 26.5520801 -14.01908882 24.87758715 -14.01074219 23.203125 C-14.0000424 20.63517619 -14.01063725 18.06792697 -14.0234375 15.5 C-14.0221159 13.87499845 -14.01955351 12.24999734 -14.015625 10.625 C-14.01967346 9.85414063 -14.02372192 9.08328125 -14.02789307 8.2890625 C-13.94223388 -1.4142351 -8.06095855 0.14158592 0 0 Z " fill="#FDD53F" transform="translate(373.75,383.375)"/>
<path d="M0 0 C5.67476113 1.96434039 9.31400331 5.62800662 12 11 C12.54360446 15.95482094 12.56437074 19.87125852 10.3125 24.375 C6.72054254 28.45235712 3.52833982 31.59004052 -2.05078125 32.23828125 C-7.58896758 32.42001793 -10.64755155 31.74513006 -15 28 C-19.3022759 23.23261319 -20.36282503 19.56252705 -20.28125 13.28125 C-19.69180611 8.50020514 -16.85179203 5.75038822 -13.375 2.6875 C-8.92314854 -0.47565762 -5.3540278 -0.48837416 0 0 Z " fill="#2E333A" transform="translate(228,336)"/>
<path d="M0 0 C4.8846525 2.26787438 7.73212562 5.1153475 10 10 C10.75381535 15.5997712 10.77303575 20.33499991 8.375 25.5 C3.80134327 30.3143755 0.6912538 32.25156236 -6 32.5 C-12.6912538 32.25156236 -15.80134327 30.3143755 -20.375 25.5 C-22.77303575 20.33499991 -22.75381535 15.5997712 -22 10 C-17.52212837 0.3553534 -9.85292056 -1.32635469 0 0 Z M-11.375 10.625 C-13.48706506 13.71186432 -13.61195145 15.3282913 -13 19 C-11.5 21.5 -11.5 21.5 -9 23 C-5.3282913 23.61195145 -3.71186432 23.48706506 -0.625 21.375 C1.48706506 18.28813568 1.61195145 16.6717087 1 13 C-0.5 10.5 -0.5 10.5 -3 9 C-6.6717087 8.38804855 -8.28813568 8.51293494 -11.375 10.625 Z " fill="#253137" transform="translate(114,124)"/>
<path d="M0 0 C4.8846525 2.26787438 7.73212562 5.1153475 10 10 C10.75381535 15.5997712 10.77303575 20.33499991 8.375 25.5 C3.80134327 30.3143755 0.6912538 32.25156236 -6 32.5 C-12.6912538 32.25156236 -15.80134327 30.3143755 -20.375 25.5 C-22.77303575 20.33499991 -22.75381535 15.5997712 -22 10 C-17.52212837 0.3553534 -9.85292056 -1.32635469 0 0 Z M-11.375 10.625 C-13.48706506 13.71186432 -13.61195145 15.3282913 -13 19 C-11.5 21.5 -11.5 21.5 -9 23 C-5.3282913 23.61195145 -3.71186432 23.48706506 -0.625 21.375 C1.48706506 18.28813568 1.61195145 16.6717087 1 13 C-0.5 10.5 -0.5 10.5 -3 9 C-6.6717087 8.38804855 -8.28813568 8.51293494 -11.375 10.625 Z " fill="#253137" transform="translate(74,124)"/>
<path d="M0 0 C1.57043101 0.01330874 3.14079971 0.03717648 4.7109375 0.0703125 C5.51273437 0.07933594 6.31453125 0.08835937 7.140625 0.09765625 C9.12252273 0.12125027 11.10426731 0.15712185 13.0859375 0.1953125 C12.90417969 0.92645264 12.72242188 1.65759277 12.53515625 2.41088867 C11.71276199 5.73341422 10.89926619 9.0580567 10.0859375 12.3828125 C9.79976563 13.53330078 9.51359375 14.68378906 9.21875 15.86914062 C8.94804687 16.98095703 8.67734375 18.09277344 8.3984375 19.23828125 C8.14707031 20.25946045 7.89570313 21.28063965 7.63671875 22.33276367 C6.6295353 27.5575193 6.6295353 27.5575193 8.3984375 32.36328125 C8.9553125 33.02972656 9.5121875 33.69617188 10.0859375 34.3828125 C13.0859375 38.01475694 13.0859375 38.01475694 13.0859375 40.1953125 C10.29401545 40.24911828 7.5031234 40.28888919 4.7109375 40.3203125 C3.916875 40.33707031 3.1228125 40.35382813 2.3046875 40.37109375 C0.23101735 40.38866723 -1.84289491 40.29866418 -3.9140625 40.1953125 C-6.45971662 37.64965838 -6.1613026 36.00355536 -6.19195557 32.53125 C-6.1879071 31.76039063 -6.18385864 30.98953125 -6.1796875 30.1953125 C-6.18160095 29.40382813 -6.1835144 28.61234375 -6.18548584 27.796875 C-6.18684768 26.1223926 -6.18315132 24.44789965 -6.17480469 22.7734375 C-6.1641049 20.20548869 -6.17469975 17.63823947 -6.1875 15.0703125 C-6.1861784 13.44531095 -6.18361601 11.82030984 -6.1796875 10.1953125 C-6.18373596 9.42445313 -6.18778442 8.65359375 -6.19195557 7.859375 C-6.1423223 2.23701978 -6.11806615 0.30529272 0 0 Z " fill="#FDD53F" transform="translate(365.9140625,335.8046875)"/>
<path d="M0 0 C3 0.125 3 0.125 4 1.125 C4.07313567 3.65549402 4.09247527 6.15804837 4.0625 8.6875 C4.05798828 9.39841797 4.05347656 10.10933594 4.04882812 10.84179688 C4.03700864 12.60290013 4.01907263 14.36396036 4 16.125 C5.07121094 16.11339844 6.14242188 16.10179688 7.24609375 16.08984375 C8.64322743 16.08046701 10.04036299 16.07136669 11.4375 16.0625 C12.14455078 16.05412109 12.85160156 16.04574219 13.58007812 16.03710938 C15.38693559 16.02846412 17.19387603 16.07279989 19 16.125 C20 17.125 20 17.125 20.125 20.125 C20 23.125 20 23.125 19 24.125 C16.46950598 24.19813567 13.96695163 24.21747527 11.4375 24.1875 C10.72658203 24.18298828 10.01566406 24.17847656 9.28320312 24.17382812 C7.52209987 24.16200864 5.76103964 24.14407263 4 24.125 C4.01160156 25.19621094 4.02320313 26.26742187 4.03515625 27.37109375 C4.04453299 28.76822743 4.05363331 30.16536299 4.0625 31.5625 C4.07087891 32.26955078 4.07925781 32.97660156 4.08789062 33.70507812 C4.09653588 35.51193559 4.05220011 37.31887603 4 39.125 C3 40.125 3 40.125 0 40.25 C-3 40.125 -3 40.125 -4 39.125 C-4.07313567 36.59450598 -4.09247527 34.09195163 -4.0625 31.5625 C-4.05798828 30.85158203 -4.05347656 30.14066406 -4.04882812 29.40820312 C-4.03700864 27.64709987 -4.01907263 25.88603964 -4 24.125 C-5.60681641 24.14240234 -5.60681641 24.14240234 -7.24609375 24.16015625 C-8.64322743 24.16953299 -10.04036299 24.17863331 -11.4375 24.1875 C-12.14455078 24.19587891 -12.85160156 24.20425781 -13.58007812 24.21289062 C-15.38693559 24.22153588 -17.19387603 24.17720011 -19 24.125 C-20 23.125 -20 23.125 -20.125 20.125 C-20 17.125 -20 17.125 -19 16.125 C-16.46950598 16.05186433 -13.96695163 16.03252473 -11.4375 16.0625 C-10.72658203 16.06701172 -10.01566406 16.07152344 -9.28320312 16.07617188 C-7.52209987 16.08799136 -5.76103964 16.10592737 -4 16.125 C-4.01160156 15.05378906 -4.02320313 13.98257813 -4.03515625 12.87890625 C-4.04453299 11.48177257 -4.05363331 10.08463701 -4.0625 8.6875 C-4.07506836 7.62692383 -4.07506836 7.62692383 -4.08789062 6.54492188 C-4.09653588 4.73806441 -4.05220011 2.93112397 -4 1.125 C-3 0.125 -3 0.125 0 0 Z " fill="#253137" transform="translate(464,83.875)"/>
<path d="M0 0 C3 0.125 3 0.125 4 1.125 C4.07313567 3.65549402 4.09247527 6.15804837 4.0625 8.6875 C4.05798828 9.39841797 4.05347656 10.10933594 4.04882812 10.84179688 C4.03700864 12.60290013 4.01907263 14.36396036 4 16.125 C5.07121094 16.11339844 6.14242188 16.10179687 7.24609375 16.08984375 C8.64322743 16.08046701 10.04036299 16.07136669 11.4375 16.0625 C12.14455078 16.05412109 12.85160156 16.04574219 13.58007812 16.03710938 C15.38693559 16.02846412 17.19387603 16.07279989 19 16.125 C20 17.125 20 17.125 20.125 20.125 C20 23.125 20 23.125 19 24.125 C16.46950598 24.19813567 13.96695163 24.21747527 11.4375 24.1875 C10.72658203 24.18298828 10.01566406 24.17847656 9.28320312 24.17382812 C7.52209987 24.16200864 5.76103964 24.14407263 4 24.125 C4.01160156 25.19621094 4.02320313 26.26742187 4.03515625 27.37109375 C4.04453299 28.76822743 4.05363331 30.16536299 4.0625 31.5625 C4.07087891 32.26955078 4.07925781 32.97660156 4.08789062 33.70507812 C4.09653588 35.51193559 4.05220011 37.31887603 4 39.125 C3 40.125 3 40.125 0 40.25 C-3 40.125 -3 40.125 -4 39.125 C-4.07313567 36.59450598 -4.09247527 34.09195163 -4.0625 31.5625 C-4.05798828 30.85158203 -4.05347656 30.14066406 -4.04882812 29.40820312 C-4.03700864 27.64709987 -4.01907263 25.88603964 -4 24.125 C-5.60681641 24.14240234 -5.60681641 24.14240234 -7.24609375 24.16015625 C-8.64322743 24.16953299 -10.04036299 24.17863331 -11.4375 24.1875 C-12.14455078 24.19587891 -12.85160156 24.20425781 -13.58007812 24.21289062 C-15.38693559 24.22153588 -17.19387603 24.17720011 -19 24.125 C-20 23.125 -20 23.125 -20.125 20.125 C-20 17.125 -20 17.125 -19 16.125 C-16.46950598 16.05186433 -13.96695163 16.03252473 -11.4375 16.0625 C-10.72658203 16.06701172 -10.01566406 16.07152344 -9.28320312 16.07617188 C-7.52209987 16.08799136 -5.76103964 16.10592737 -4 16.125 C-4.01160156 15.05378906 -4.02320313 13.98257813 -4.03515625 12.87890625 C-4.04453299 11.48177257 -4.05363331 10.08463701 -4.0625 8.6875 C-4.07506836 7.62692383 -4.07506836 7.62692383 -4.08789062 6.54492188 C-4.09653588 4.73806441 -4.05220011 2.93112397 -4 1.125 C-3 0.125 -3 0.125 0 0 Z " fill="#253137" transform="translate(408,31.875)"/>
<path d="M0 0 C0.8816835 -0.0033284 1.763367 -0.0066568 2.67176819 -0.01008606 C4.54053219 -0.01515908 6.40930529 -0.01749427 8.27807617 -0.01733398 C11.14451969 -0.01951933 14.01057785 -0.0376678 16.87695312 -0.05664062 C18.68880076 -0.05957464 20.50065023 -0.06155938 22.3125 -0.0625 C23.60473732 -0.07327827 23.60473732 -0.07327827 24.92308044 -0.08427429 C30.99383465 -0.06085285 30.99383465 -0.06085285 33.22265625 2.16796875 C32.66710069 6.72352431 32.66710069 6.72352431 31.22265625 8.16796875 C28.28899879 8.28149891 25.37977163 8.33215583 22.4453125 8.3359375 C21.563629 8.3392659 20.6819455 8.3425943 19.77354431 8.34602356 C17.90478031 8.35109658 16.03600721 8.35343177 14.16723633 8.35327148 C11.30079281 8.35545683 8.43473465 8.3736053 5.56835938 8.39257812 C3.75651174 8.39551214 1.94466227 8.39749688 0.1328125 8.3984375 C-1.15942482 8.40921577 -1.15942482 8.40921577 -2.47776794 8.42021179 C-8.54852215 8.39679035 -8.54852215 8.39679035 -10.77734375 6.16796875 C-9.87664224 -1.21778362 -6.5773462 0.00847631 0 0 Z " fill="#273338" transform="translate(422.77734375,447.83203125)"/>
<path d="M0 0 C1.05617271 -0.0049926 1.05617271 -0.0049926 2.13368225 -0.01008606 C3.62581731 -0.0151578 5.11796375 -0.01749431 6.61010742 -0.01733398 C8.89716232 -0.01951884 11.18373378 -0.03766674 13.47070312 -0.05664062 C14.91796709 -0.05957479 16.36523336 -0.06155943 17.8125 -0.0625 C18.49900131 -0.06968552 19.18550262 -0.07687103 19.89280701 -0.08427429 C24.74383256 -0.06085494 24.74383256 -0.06085494 26.97265625 2.16796875 C26.41710069 6.72352431 26.41710069 6.72352431 24.97265625 8.16796875 C22.62037306 8.28114159 20.29853677 8.33213412 17.9453125 8.3359375 C16.88913979 8.3409301 16.88913979 8.3409301 15.81163025 8.34602356 C14.31949519 8.3510953 12.82734875 8.35343181 11.33520508 8.35327148 C9.04815018 8.35545634 6.76157872 8.37360424 4.47460938 8.39257812 C3.02734541 8.39551229 1.58007914 8.39749693 0.1328125 8.3984375 C-0.55368881 8.40562302 -1.24019012 8.41280853 -1.94749451 8.42021179 C-6.79852006 8.39679244 -6.79852006 8.39679244 -9.02734375 6.16796875 C-8.21370242 -0.50389017 -6.08130978 0.00982886 0 0 Z " fill="#283338" transform="translate(429.02734375,399.83203125)"/>
<path d="M0 0 C1.05617271 -0.0049926 1.05617271 -0.0049926 2.13368225 -0.01008606 C3.62581731 -0.0151578 5.11796375 -0.01749431 6.61010742 -0.01733398 C8.89716232 -0.01951884 11.18373378 -0.03766674 13.47070312 -0.05664062 C14.91796709 -0.05957479 16.36523336 -0.06155943 17.8125 -0.0625 C18.49900131 -0.06968552 19.18550262 -0.07687103 19.89280701 -0.08427429 C24.74383256 -0.06085494 24.74383256 -0.06085494 26.97265625 2.16796875 C26.41710069 6.72352431 26.41710069 6.72352431 24.97265625 8.16796875 C22.62037306 8.28114159 20.29853677 8.33213412 17.9453125 8.3359375 C16.88913979 8.3409301 16.88913979 8.3409301 15.81163025 8.34602356 C14.31949519 8.3510953 12.82734875 8.35343181 11.33520508 8.35327148 C9.04815018 8.35545634 6.76157872 8.37360424 4.47460938 8.39257812 C3.02734541 8.39551229 1.58007914 8.39749693 0.1328125 8.3984375 C-0.55368881 8.40562302 -1.24019012 8.41280853 -1.94749451 8.42021179 C-6.79852006 8.39679244 -6.79852006 8.39679244 -9.02734375 6.16796875 C-8.21370242 -0.50389017 -6.08130978 0.00982886 0 0 Z " fill="#283338" transform="translate(429.02734375,351.83203125)"/>
<path d="M0 0 C3.5 1.0625 3.5 1.0625 6 3.25 C7.5 6.0625 7.5 6.0625 7.5625 9.125 C6.22765196 12.81546223 4.86063527 14.07667007 1.5 16.0625 C-1 16.6875 -1 16.6875 -3.5 16.0625 C-6.375 13.4375 -6.375 13.4375 -8.5 10.0625 C-8.57354009 6.38549562 -7.90311639 4.66717458 -5.875 1.625 C-3.5 0.0625 -3.5 0.0625 0 0 Z " fill="#F6F7F7" transform="translate(224.5,343.9375)"/>
<path d="M0 0 C0.98484375 -0.00128906 1.9696875 -0.00257813 2.984375 -0.00390625 C4.02078125 -0.00003906 5.0571875 0.00382812 6.125 0.0078125 C7.67960937 0.00201172 7.67960937 0.00201172 9.265625 -0.00390625 C10.25046875 -0.00261719 11.2353125 -0.00132812 12.25 0 C13.16007812 0.00112793 14.07015625 0.00225586 15.0078125 0.00341797 C17.125 0.1328125 17.125 0.1328125 18.125 1.1328125 C18.25 4.1328125 18.25 4.1328125 18.125 7.1328125 C16.47105883 8.78675367 14.52184587 8.26280933 12.25 8.265625 C11.26515625 8.26691406 10.2803125 8.26820313 9.265625 8.26953125 C8.22921875 8.26566406 7.1928125 8.26179688 6.125 8.2578125 C4.57039063 8.26361328 4.57039063 8.26361328 2.984375 8.26953125 C1.99953125 8.26824219 1.0146875 8.26695312 0 8.265625 C-0.91007812 8.26449707 -1.82015625 8.26336914 -2.7578125 8.26220703 C-4.875 8.1328125 -4.875 8.1328125 -5.875 7.1328125 C-6 4.1328125 -6 4.1328125 -5.875 1.1328125 C-4.22105883 -0.52112867 -2.27184587 0.00281567 0 0 Z " fill="#263238" transform="translate(305.875,455.8671875)"/>
<path d="M0 0 C0.98484375 -0.00128906 1.9696875 -0.00257812 2.984375 -0.00390625 C4.02078125 -0.00003906 5.0571875 0.00382812 6.125 0.0078125 C7.67960937 0.00201172 7.67960937 0.00201172 9.265625 -0.00390625 C10.25046875 -0.00261719 11.2353125 -0.00132813 12.25 0 C13.16007812 0.00112793 14.07015625 0.00225586 15.0078125 0.00341797 C17.125 0.1328125 17.125 0.1328125 18.125 1.1328125 C18.25 4.1328125 18.25 4.1328125 18.125 7.1328125 C16.47105883 8.78675367 14.52184587 8.26280933 12.25 8.265625 C11.26515625 8.26691406 10.2803125 8.26820312 9.265625 8.26953125 C8.22921875 8.26566406 7.1928125 8.26179688 6.125 8.2578125 C4.57039063 8.26361328 4.57039063 8.26361328 2.984375 8.26953125 C1.99953125 8.26824219 1.0146875 8.26695313 0 8.265625 C-0.91007812 8.26449707 -1.82015625 8.26336914 -2.7578125 8.26220703 C-4.875 8.1328125 -4.875 8.1328125 -5.875 7.1328125 C-6 4.1328125 -6 4.1328125 -5.875 1.1328125 C-4.22105883 -0.52112867 -2.27184587 0.00281567 0 0 Z " fill="#263238" transform="translate(89.875,71.8671875)"/>
</svg>
